<svg width="70" height="80" viewBox="0 0 70 80" fill="none" xmlns="http://www.w3.org/2000/svg">
<path d="M55.7135 75.6228C55.7615 73.12 53.6652 71.0714 51.1619 71.0714L41.4286 71.0714L41.4286 70.1786L61.0949 70.1786C63.5982 70.1786 65.6945 68.13 65.6465 65.6272C65.6001 63.2016 63.6196 61.2499 61.1832 61.2499L41.4286 61.2499L41.4286 60.3571L65.4476 60.3571C67.9509 60.3571 70.0472 58.3085 69.9992 55.8057C69.9528 53.3804 67.9722 51.4287 65.5357 51.4287L41.4285 51.4287L41.4285 50.5358L60.9834 50.5358C63.4867 50.5358 65.5829 48.4873 65.535 45.9844C65.4886 43.5591 63.5079 41.6074 61.0715 41.6074L34.733 41.6074L39.59 38.0752C41.5841 36.6251 42.0249 33.8332 40.5747 31.839C39.1246 29.8451 36.3325 29.4043 34.3385 30.8543L15.0633 44.8723C14.3799 45.3693 13.8238 46.0209 13.4403 46.7738C13.0569 47.5268 12.857 48.3598 12.857 49.2047L12.857 71.2572C12.857 73.7431 14.5673 75.9025 16.9872 76.4719L29.5608 79.4303C31.1693 79.8088 32.8163 80 34.4688 80L51.2501 80C53.6865 79.9998 55.6671 78.0481 55.7135 75.6228ZM44.2683 40.3571L38.5772 40.3571L40.3252 39.0859C43.2282 36.9748 43.4991 32.6973 40.8205 30.2521L42.8524 27.6428C44.3904 25.6676 47.2946 25.2723 49.2399 26.8478C51.1251 28.3745 51.4482 31.1364 49.9513 33.0587L44.2683 40.3571ZM0.00289567 40.0285L0.784613 16.2079C0.865554 13.7437 2.92869 11.8117 5.39292 11.8925C7.85746 11.9734 9.78934 14.0365 9.7084 16.5008L9.51121 22.5031L25.693 1.72171C27.1899 -0.200626 29.9466 -0.564219 31.8888 0.889216C33.893 2.38906 34.2214 5.30171 32.6835 7.27686L20.6695 22.7057L21.3741 23.2543L36.185 4.23343C37.6819 2.31109 40.4386 1.9475 42.3808 3.40093C44.3851 4.90077 44.7135 7.81342 43.1755 9.78858L28.4188 28.7398L29.1233 29.2884L41.26 13.7019C42.7569 11.7795 45.5137 11.4159 47.4558 12.8694C49.4601 14.3692 49.7885 17.2818 48.2505 19.257L40.1172 29.7021C38.1646 28.412 35.5774 28.4076 33.6032 29.8434L14.3281 43.8612C12.6243 45.1002 11.607 47.0979 11.607 49.2046L11.607 51.8607L2.06572 44.4312C1.39902 43.912 0.864582 43.2425 0.506077 42.4773C0.147564 41.7122 -0.0248601 40.8731 0.00289567 40.0285Z" fill="#2563EB"/>
</svg>
