<svg width="100" height="100" viewBox="0 0 100 100" fill="none" xmlns="http://www.w3.org/2000/svg">
<rect width="100" height="100" fill="white"/>
<path d="M70.7135 85.6228C70.7615 83.12 68.6652 81.0714 66.1619 81.0714L56.4286 81.0714L56.4286 80.1786L76.0949 80.1786C78.5982 80.1786 80.6945 78.13 80.6465 75.6272C80.6001 73.2016 78.6196 71.2499 76.1832 71.2499L56.4286 71.2499L56.4286 70.3571L80.4476 70.3571C82.9509 70.3571 85.0472 68.3085 84.9992 65.8057C84.9528 63.3804 82.9722 61.4287 80.5357 61.4287L56.4285 61.4287L56.4285 60.5358L75.9834 60.5358C78.4867 60.5358 80.5829 58.4873 80.535 55.9844C80.4886 53.5591 78.5079 51.6074 76.0715 51.6074L49.733 51.6074L54.59 48.0752C56.5841 46.6251 57.0249 43.8332 55.5747 41.839C54.1246 39.8451 51.3325 39.4043 49.3385 40.8543L30.0633 54.8723C29.3799 55.3693 28.8238 56.0208 28.4403 56.7738C28.0569 57.5268 27.857 58.3598 27.857 59.2048L27.857 81.2572C27.857 83.7431 29.5673 85.9025 31.9872 86.4719L44.5608 89.4303C46.1693 89.8088 47.8163 90 49.4688 90L66.2501 90C68.6865 89.9998 70.6671 88.0481 70.7135 85.6228ZM59.2683 50.3571L53.5772 50.3571L55.3252 49.0859C58.2282 46.9748 58.4991 42.6973 55.8205 40.2521L57.8524 37.6428C59.3904 35.6676 62.2946 35.2723 64.2399 36.8478C66.1251 38.3745 66.4482 41.1364 64.9513 43.0587L59.2683 50.3571ZM15.0029 50.0285L15.7846 26.2079C15.8656 23.7437 17.9287 21.8117 20.3929 21.8925C22.8575 21.9734 24.7893 24.0365 24.7084 26.5007L24.5112 32.5031L40.693 11.7217C42.1899 9.79937 44.9466 9.43578 46.8888 10.8892C48.893 12.3891 49.2214 15.3017 47.6835 17.2769L35.6695 32.7057L36.3741 33.2543L51.185 14.2334C52.6819 12.3111 55.4386 11.9475 57.3808 13.4009C59.3851 14.9008 59.7135 17.8134 58.1755 19.7886L43.4188 38.7398L44.1233 39.2884L56.26 23.7019C57.7569 21.7795 60.5137 21.4159 62.4558 22.8694C64.4601 24.3692 64.7885 27.2818 63.2505 29.257L55.1172 39.7021C53.1646 38.412 50.5774 38.4076 48.6031 39.8434L29.3281 53.8612C27.6243 55.1002 26.607 57.0979 26.607 59.2046L26.607 61.8607L17.0657 54.4312C16.399 53.912 15.8646 53.2425 15.5061 52.4773C15.1476 51.7122 14.9751 50.8731 15.0029 50.0285Z" fill="#2563EB"/>
</svg>
